<svg version="1.1" id="Layer_1" xmlns="http://www.w3.org/2000/svg" xmlns:xlink="http://www.w3.org/1999/xlink" x="0px" y="0px"
	 width="100%" viewBox="0 0 240 304" enable-background="new 0 0 240 304" xml:space="preserve">
<path fill="#000000" opacity="1.000000" stroke="none" 
	d="
M191.840698,284.443359 
	C182.922760,279.580902 176.808197,272.888916 174.607208,263.131348 
	C173.983719,260.367279 172.571884,258.869293 169.682999,258.346466 
	C142.051147,253.345779 114.424103,248.315765 86.832458,243.099686 
	C83.928955,242.550766 82.710907,243.326736 81.377525,245.715195 
	C73.967491,258.988556 62.039707,264.870667 48.266491,262.262451 
	C35.083832,259.766052 25.333998,249.188354 23.255924,235.128220 
	C21.127693,220.728668 30.972961,205.842865 45.704300,202.266663 
	C49.894173,201.249542 50.959606,199.149414 51.455952,195.632507 
	C54.147671,176.559937 56.888760,157.494324 59.620392,138.427399 
	C59.855705,136.784851 60.145103,135.150055 60.410900,133.511917 
	C61.598972,126.189819 62.631752,120.190826 54.374363,114.493637 
	C43.154503,106.752502 40.340427,94.209351 44.688602,81.005302 
	C48.861870,68.332413 58.264496,61.222141 71.297798,60.101627 
	C82.736588,59.118202 91.942986,64.496643 98.767197,73.572861 
	C100.527359,75.913879 101.928757,76.745682 104.894562,76.003792 
	C125.700127,70.799278 146.540375,65.730232 167.408463,60.782066 
	C170.918045,59.949890 171.085693,57.389782 171.572784,54.804028 
	C175.844894,32.125366 200.879776,21.364864 220.344009,33.852509 
	C232.456665,41.623611 237.682449,57.518959 232.796219,71.728554 
	C228.114822,85.342476 215.002747,94.059265 200.509460,92.232391 
	C195.253159,91.569847 193.238434,93.394753 191.233505,97.657127 
	C184.644684,111.664566 177.782578,125.546211 170.823349,139.374466 
	C169.332458,142.336914 169.798950,143.985855 172.275314,146.084564 
	C184.310089,156.284058 186.947601,172.930542 178.324585,186.135925 
	C175.889282,189.865356 176.066284,192.355804 178.395615,195.864212 
	C183.274078,203.212097 188.075760,210.665115 192.163330,218.465668 
	C195.090851,224.052444 198.687592,226.003967 205.062073,225.793228 
	C219.222504,225.325073 231.064774,235.087570 234.378250,248.898178 
	C237.233322,260.798096 234.159164,271.195007 225.225113,279.322693 
	C216.594635,287.174225 206.301331,289.362518 195.016251,285.590576 
	C194.070801,285.274536 193.136276,284.925842 191.840698,284.443359 
M116.484146,143.031708 
	C108.635864,135.595581 100.800560,128.145676 92.931351,120.731750 
	C90.586739,118.522774 76.934891,121.245766 75.638962,124.164696 
	C75.380241,124.747437 75.430664,125.466789 75.334900,126.122620 
	C72.363213,146.475891 69.234886,166.808136 66.498665,187.193008 
	C65.456787,194.955017 61.490303,203.886978 73.420639,207.883942 
	C76.023071,208.755829 77.593941,209.502411 79.985428,207.967575 
	C93.282578,199.433472 106.568024,190.874954 120.045464,182.632156 
	C123.570480,180.476273 124.336929,178.011932 123.405655,174.397324 
	C122.300713,170.108658 121.795166,165.399155 123.857483,161.668518 
	C128.080154,154.029953 124.503815,149.461456 118.886063,145.159058 
	C118.227142,144.654434 117.631531,144.067169 116.484146,143.031708 
M109.570953,89.222076 
	C105.904465,89.570084 104.093872,91.335991 103.840286,95.259819 
	C103.651344,98.183495 102.755974,101.204086 101.521927,103.880280 
	C100.095535,106.973640 100.599236,108.967064 103.067398,111.255234 
	C113.084892,120.542221 123.014587,129.928574 132.786377,139.473099 
	C135.713577,142.332230 138.268677,143.114548 141.965927,140.954269 
	C144.517197,139.463608 147.615463,138.518478 150.587799,138.815170 
	C154.957626,139.251373 156.821686,136.907990 158.471375,133.469788 
	C164.812805,120.253326 170.903595,106.890930 177.905487,94.028030 
	C181.325043,87.746101 181.435562,83.094490 176.596970,77.721153 
	C174.140808,74.993568 172.136566,73.840805 168.536926,74.742661 
	C149.169083,79.595039 129.760529,84.284889 109.570953,89.222076 
M171.406479,211.018494 
	C169.436020,207.739822 167.436218,204.478333 165.505814,201.176239 
	C164.292389,199.100601 162.942307,198.247192 160.239212,198.788300 
	C151.197495,200.598236 142.616348,199.176285 135.215286,193.408707 
	C132.742218,191.481476 130.982117,191.768875 128.604721,193.293549 
	C114.885353,202.092010 101.086929,210.767136 87.342461,219.526688 
	C85.327782,220.810669 82.895073,221.670044 83.737579,225.185608 
	C84.541481,228.540054 86.833054,229.111664 89.503098,229.597610 
	C98.157021,231.172668 106.811966,232.742325 115.462814,234.334152 
	C133.906601,237.727966 152.344589,241.153519 170.796127,244.504456 
	C172.529327,244.819199 175.014923,245.681839 175.879257,243.792969 
	C177.945053,239.278580 182.426285,236.270828 183.481094,231.280121 
	C183.667130,230.399902 182.584763,229.199661 181.980759,228.212952 
	C178.594864,222.681610 175.176025,217.170425 171.406479,211.018494 
z"/>
</svg>
