<svg viewBox="0 0 512 512" xmlns="http://www.w3.org/2000/svg">
  <!-- White background box -->
  <rect width="512" height="512" fill="#FFFFFF"/>
  <!-- Logo properly centered -->
  <g transform="translate(160, 432.36) scale(0.048, -0.048)">
    <path d="M319 7004 c-6 -7 -8 -204 -7 -499 l3 -487 30 -24 c17 -14 54 -38 83 -55 28 -17 58 -36 65 -43 6 -6 47 -34 90 -61 43 -28 131 -84 195 -126 64 -42 151 -98 192 -125 77 -51 115 -75 169 -109 17 -10 31 -25 31 -33 0 -16 -39 -51 -57 -52 -6 0 -13 -4 -15 -8 -1 -4 -46 -35 -98 -69 -52 -34 -99 -65 -105 -70 -10 -9 -229 -151 -441 -285 -58 -38 -108 -68 -111 -68 -7 0 -90 -58 -107 -76 -14 -14 -16 -100 -16 -805 0 -752 1 -790 18 -806 10 -10 29 -25 42 -33 12 -8 28 -20 35 -27 6 -6 41 -29 76 -51 74 -45 348 -226 366 -242 7 -5 14 -10 17 -10 3 0 49 -29 101 -65 53 -36 98 -65 100 -65 12 0 185 -135 185 -144 0 -6 -70 -56 -155 -111 -85 -55 -222 -143 -304 -197 -182 -118 -310 -198 -319 -198 -4 -1 -20 -11 -35 -24 l-28 -23 -5 -487 c-3 -330 -1 -493 6 -507 11 -19 22 -19 378 -17 l367 3 3 174 2 174 242 -6 c133 -4 526 -7 874 -7 l634 0 2 -167 3 -168 378 -3 377 -2 -2 502 -3 502 -100 68 c-55 37 -104 71 -110 76 -5 4 -39 25 -75 47 -36 21 -66 43 -68 47 -2 4 -8 8 -13 8 -5 0 -48 26 -97 58 -48 32 -121 80 -162 107 -181 115 -220 144 -220 162 0 7 26 30 58 50 31 20 154 100 272 178 118 78 253 166 300 197 153 99 224 145 268 172 l42 26 -2 807 -3 807 -115 78 c-63 43 -129 85 -147 94 -18 9 -37 22 -44 30 -6 8 -16 14 -21 14 -9 0 -109 64 -343 219 -55 36 -104 68 -110 71 -16 8 -99 64 -105 71 -3 3 -15 11 -27 18 -40 21 -64 2 327 253 74 47 169 108 210 134 144 91 275 179 282 189 10 13 10 1025 1 1025 -14 1 -718 1 -730 0 -10 0 -13 -37 -13 -152 0 -84 -4 -159 -8 -165 -6 -10 -198 -13 -867 -14 -473 0 -866 0 -872 0 -10 1 -13 41 -13 166 0 125 -3 165 -12 165 -7 1 -174 2 -371 3 -258 1 -361 -1 -368 -9z m2335 -603 c8 -12 -673 -461 -699 -461 -3 0 -44 27 -93 60 -48 33 -94 65 -102 70 -95 62 -237 156 -245 162 -5 4 -24 19 -41 33 -18 14 -35 25 -39 25 -7 0 -96 59 -105 70 -3 3 -17 11 -32 17 -16 7 -28 17 -28 23 0 13 1376 14 1384 1z m-656 -1478 c15 -10 32 -22 39 -28 7 -5 131 -89 278 -185 146 -96 265 -178 265 -182 0 -5 -281 -8 -625 -8 -344 0 -625 4 -625 8 0 5 62 49 138 99 410 270 475 312 495 313 4 0 20 -8 35 -17z m890 -920 l-3 -248 -929 -3 c-678 -1 -932 1 -942 9 -11 9 -14 60 -14 244 0 127 3 235 7 238 3 4 429 7 945 7 l938 0 -2 -247z m-310 -525 c-8 -25 -603 -408 -635 -408 -9 0 -60 30 -115 68 -54 37 -106 72 -116 77 -20 12 -266 176 -335 223 -26 18 -45 36 -43 40 2 4 284 9 626 10 519 3 622 2 618 -10z m-560 -1450 c93 -59 195 -125 207 -135 38 -30 105 -73 113 -73 6 0 12 -4 14 -8 2 -4 28 -23 58 -41 30 -19 57 -36 60 -40 3 -3 38 -28 78 -55 39 -27 72 -53 72 -57 0 -10 -1341 -17 -1354 -7 -4 3 52 46 125 94 198 129 491 324 518 345 13 11 28 19 33 19 4 0 39 -19 76 -42z" fill="#000000"/>
  </g>
</svg>
