<svg width="720" height="720" viewBox="0 0 720 720" fill="none" xmlns="http://www.w3.org/2000/svg">
<path d="M189.007 255.819C195.705 254.155 201.952 252.324 208.318 251.125C212.029 250.425 213.147 248.409 213.686 245.1C217.335 222.685 242.765 211.394 261.767 223.685C274.266 231.771 279.698 247.472 274.803 261.368C269.64 276.025 256.867 283.999 240.695 282.09C237.075 281.662 235.632 282.844 234.245 285.696C227.106 300.374 219.904 315.021 212.597 329.615C211.221 332.364 211.778 334.015 214.019 336.008C226.82 347.394 228.942 362.869 219.607 377.275C217.88 379.941 217.878 381.876 219.511 384.46C224.764 392.767 230.116 401.036 234.84 409.644C237.439 414.382 240.54 415.941 245.911 415.769C260.535 415.299 272.024 424.02 276.11 437.861C280.9 454.085 271.485 471.258 255.138 476.117C239.478 480.772 221.821 471.28 217.276 455.158C215.909 450.31 213.665 448.646 208.933 447.819C182.239 443.155 155.594 438.203 128.978 433.113C125.791 432.504 124.589 433.463 123.216 436.002C116.057 449.234 102.755 455.376 88.9467 452.035C75.7043 448.831 65.6849 436.627 64.9313 422.783C64.1862 409.097 73.7602 395.784 87.5854 392.291C91.6185 391.272 92.9384 389.389 93.4458 385.728C96.1145 366.472 98.9013 347.233 101.658 327.99C101.87 326.512 102.186 325.049 102.425 323.575C103.607 316.263 104.699 310.2 96.4178 304.549C85.5183 297.11 82.5325 284.914 86.3738 272.002C90.1003 259.477 98.8725 251.989 111.792 250.349C123.682 248.84 133.286 253.863 140.42 263.231C142.463 265.913 144.119 266.788 147.403 265.953C161.102 262.468 174.866 259.24 189.007 255.819ZM108.452 376.891C108.324 378.215 108.346 379.574 108.044 380.856C106.379 387.945 105.565 394.627 114.834 397.142C114.983 397.182 115.128 397.314 115.229 397.44C117.595 400.406 119.914 399.318 122.537 397.636C136.112 388.931 149.724 380.281 163.416 371.761C165.746 370.311 166.67 369.04 165.799 366.206C163.705 359.4 164.631 352.654 167.542 346.294C168.765 343.622 168.154 342.066 166.218 340.26C157.951 332.548 149.258 325.205 141.722 316.827C135.648 310.074 129.887 307.47 121.359 311.866C118.836 313.166 117.59 313.982 117.185 316.936C114.48 336.654 111.507 356.334 108.452 376.891ZM157.005 312.488C162.898 318.117 168.866 323.668 174.649 329.407C177.437 332.173 179.981 333.348 183.805 331.056C186.617 329.37 190.03 328.562 193.393 328.767C196.715 328.969 198.499 327.615 199.904 324.654C206.463 310.837 212.802 296.888 220.09 283.459C223.358 277.436 223.388 273.258 218.852 268.112C216.166 265.064 214.061 263.842 210.025 264.861C191.189 269.617 172.324 274.278 153.375 278.555C148.224 279.718 145.465 281.923 145.43 287.249C145.414 289.628 144.752 291.982 143.492 293.884C141.284 297.217 142.719 299.227 145.213 301.423C149.08 304.827 152.75 308.456 157.005 312.488ZM137.686 420.632C161.369 425.016 185.089 429.22 208.711 433.915C214.462 435.058 218.906 435.708 221.13 428.861C221.703 427.097 223.47 425.655 224.869 424.244C226.151 422.95 226.269 421.781 225.336 420.268C219.219 410.349 213.129 400.413 207.051 390.47C205.929 388.634 204.499 388.315 202.393 388.731C193.131 390.557 184.47 389.137 176.935 383.136C174.889 381.506 173.304 381.561 171.163 382.939C156.887 392.132 142.541 401.214 128.221 410.337C126.485 411.443 125.058 412.499 125.744 415.123C126.378 417.553 127.56 418.888 129.969 419.287C132.264 419.667 134.549 420.102 137.686 420.632Z" fill="black"/>
<path d="M610.727 313.028C610.7 309.201 610.875 305.851 610.594 302.541C610.231 298.268 608.135 295.298 603.45 295.013C599.021 294.743 595.643 296.17 594.092 300.75C593.43 302.705 593.35 304.66 593.346 306.658C593.33 316.991 593.228 327.325 593.358 337.656C593.401 341.041 592.31 342.447 588.777 342.373C573.073 342.044 575.853 344.436 575.682 329.659C575.517 315.328 575.811 300.992 575.573 286.663C575.497 282.094 577.066 280.657 581.407 281.415C583.183 281.725 585.08 281.607 586.888 281.395C589.817 281.051 592.586 280.863 594.021 284.296C605.327 277.76 615.597 278.134 624.762 287.819C628.917 284.466 632.931 281.64 637.974 280.544C651.413 277.621 661.695 284.523 663.283 298.157C664.848 311.598 663.631 325.126 663.928 338.611C663.98 340.992 662.952 342.427 660.359 342.299C660.193 342.291 660.025 342.315 659.859 342.312C643.592 342.073 646.24 344.692 646.005 329.31C645.87 320.48 645.839 311.647 645.852 302.815C645.859 298.505 643.897 295.77 639.689 295.005C635.557 294.253 632.12 295.525 629.925 299.353C628.551 301.75 628.274 304.359 628.282 307.069C628.313 317.068 628.182 327.069 628.323 337.067C628.376 340.782 627.358 342.497 623.239 342.392C608.478 342.019 610.961 344.236 610.738 330.021C610.651 324.523 610.726 319.022 610.727 313.028Z" fill="black"/>
<path d="M330.165 342.154C314.917 336.481 305.302 323.255 304.712 307.365C304.452 300.38 304.247 293.383 306.16 286.531C311.157 268.626 325.359 257.971 343.805 258.331C362.81 258.702 377.055 270.288 381.178 288.992C383.102 297.718 383.165 306.574 380.912 315.237C375.034 337.836 354.161 348.954 330.165 342.154ZM348.107 275.309C334.399 272.178 326.074 281.597 324.055 291.139C322.723 297.437 322.708 303.753 323.563 309.993C324.896 319.723 332.595 327.117 341.185 327.658C352.087 328.343 359.721 323.092 362.62 312.339C364.693 304.649 364.135 296.872 361.936 289.217C359.966 282.356 356.036 277.379 348.107 275.309Z" fill="black"/>
<path d="M245.5 282C263.449 282 278 267.449 278 249.5C278 231.551 263.449 217 245.5 217C227.551 217 213 231.551 213 249.5C213 267.449 227.551 282 245.5 282Z" id="red-dot" fill="#FF3B30"/>
<path d="M448.934 439.298C437.058 430.804 435.451 418.763 437.049 406.065C438.402 395.315 443.784 386.986 454.78 383.424C463.003 380.759 470.524 382.587 477.486 387.224C480.143 383.325 486.005 382.424 495.359 384.498C495.359 388.137 495.362 391.928 495.358 395.718C495.345 410.384 495.462 425.052 495.273 439.716C495.113 452.109 489.083 461.821 479.259 465.059C466.499 469.266 454.307 468.861 443.909 458.898C443.31 458.324 442.727 457.702 442.276 457.011C440.553 454.372 437.95 451.411 439.257 448.446C440.553 445.505 444.353 447.098 447.051 446.924C451.027 446.669 454.749 446.597 457.717 450.567C460.067 453.71 467.484 453.543 471.806 451.216C476.027 448.942 477.987 444.334 477.187 438.054C468.082 443.381 458.798 444.78 448.934 439.298ZM477.619 419.916C479.032 414.818 479.206 409.733 477.312 404.712C475.49 399.883 471.48 397.323 466.038 397.291C460.694 397.26 457.194 399.844 455.444 404.767C453.782 409.439 453.722 414.255 455.079 418.993C456.743 424.804 460.584 428.041 465.952 428.525C470.846 428.967 474.687 426.342 477.619 419.916Z" fill="black"/>
<path d="M306.757 371.192C306.825 363.415 306.823 363.235 314.094 363.17C329.078 363.036 344.063 363.151 359.048 363.076C362.292 363.06 364.11 364.162 364.042 367.657C363.786 380.794 366.251 379.615 352.764 379.834C344.774 379.963 336.774 379.758 328.784 379.522C325.97 379.439 324.863 380.413 324.912 383.236C325.168 398.062 323.324 395.423 336.345 395.636C343.175 395.748 350.01 395.736 356.84 395.642C359.607 395.604 360.577 396.58 360.578 399.452C360.582 410.502 360.678 410.431 349.556 410.461C342.729 410.479 335.904 410.814 329.077 410.889C325.873 410.924 324.513 412.382 324.762 415.527C325.845 429.192 322.173 427.963 336.937 428C344.602 428.018 352.268 428.103 359.931 427.987C363.705 427.93 365.341 429.328 365.241 433.277C364.919 445.942 366.893 444.912 353.85 444.955C340.02 445.001 326.188 444.812 312.36 444.995C307.963 445.053 306.639 443.462 306.672 439.148C306.844 416.654 306.755 394.158 306.757 371.192Z" fill="black"/>
<path d="M388.144 445.319C376.968 441.335 371.839 432.866 370.229 422.254C368.519 410.979 369.211 399.827 377.388 390.761C385.795 381.442 398.454 379.908 409.135 386.495C409.966 387.007 410.792 387.528 412.676 388.704C412.676 381.694 412.907 375.474 412.597 369.281C412.377 364.874 413.433 363.159 418.338 363.421C429.316 364.008 429.343 363.721 429.344 374.791C429.346 396.261 429.22 417.733 429.421 439.202C429.463 443.635 427.952 445.292 423.699 444.947C421.881 444.8 420.039 444.954 418.209 444.942C415.125 444.921 411.733 445.313 412.774 439.521C404.96 445.979 397.196 447.83 388.144 445.319ZM397.087 397.292C392.386 398.334 389.594 401.481 388.291 405.866C386.504 411.882 386.444 417.985 388.753 423.906C390.95 429.542 394.722 431.895 400.676 431.69C406.089 431.504 409.757 428.735 411.599 423.164C413.306 418.001 413.291 412.693 411.952 407.484C409.954 399.711 406.108 397.013 397.087 397.292Z" fill="black"/>
<path d="M532.575 296.627C530.171 300.501 519.59 302.858 516.436 300.47C515.174 299.514 515.295 298.196 515.512 296.838C516.511 290.571 520.021 286.051 525.716 283.612C536.117 279.158 546.73 279.01 557.15 283.582C562.763 286.045 565.818 290.635 566.363 296.801C567.565 310.42 566.801 324.068 566.957 337.702C566.995 340.981 565.747 342.873 562.235 342.323C557.863 341.639 553.033 344.2 549.067 340.236C548.007 339.176 546.637 340.662 545.486 341.223C538.708 344.525 531.795 344.973 524.716 342.259C516.306 339.034 512.17 332.772 512.521 323.758C512.83 315.796 517.259 310.071 525.81 307.819C531.561 306.305 537.559 305.729 543.445 304.722C546.698 304.165 549.997 303.381 549.759 299.153C549.509 294.715 546.247 293.533 542.418 293.355C538.862 293.188 535.389 293.332 532.575 296.627ZM530.316 325.168C530.523 327.879 532.228 329.16 534.636 329.962C539.245 331.497 543.23 329.935 546.672 327.191C550.549 324.103 550.236 319.776 549.237 315.077C544.321 316.006 539.624 316.806 534.969 317.803C531.51 318.543 530.108 320.956 530.316 325.168Z" fill="black"/>
<path d="M558.337 408.248C558.246 420.5 559.614 419.113 548.014 419.181C539.856 419.23 531.696 419.308 523.539 419.185C519.104 419.118 518.941 421.068 520.345 424.489C523.811 432.934 532.814 435.703 539.29 429.368C545.184 423.601 551.42 426.35 558.539 426.033C556.506 434.134 551.707 439.033 545.644 442.615C528.284 452.871 506.31 442.601 502.785 422.791C501.39 414.953 501.365 407.192 504.496 399.739C509.957 386.735 521.889 380.613 537.176 382.782C548.766 384.427 556.304 393.335 558.337 408.248ZM533.528 407.301C534.518 407.344 535.509 407.44 536.498 407.421C541.729 407.322 542.678 405.584 540.017 401.023C537.54 396.778 532.432 394.936 527.001 396.328C522.679 397.436 520.262 401.126 520.053 407.197C524.265 407.909 528.519 407.439 533.528 407.301Z" fill="black"/>
<path d="M406.52 320.144C408.187 325.105 410.803 328.386 416.084 328.802C421.45 329.225 425.105 326.822 427.219 322.133C428.251 319.843 429.813 319.419 431.969 319.491C433.961 319.558 435.964 319.546 437.952 319.411C445.542 318.892 446.098 319.578 443.539 326.539C439.176 338.406 427.255 345.5 414.138 344.037C401.056 342.577 390.66 332.624 388.772 319.553C386.923 306.754 388.502 294.898 399.191 286.021C412.128 275.277 433.425 278.588 441.564 292.575C442.716 294.554 443.514 296.805 444.101 299.029C444.772 301.571 443.815 303.257 440.858 303.242C437.531 303.224 434.202 303.193 430.877 303.28C428.687 303.337 427.604 302.146 426.765 300.329C424.692 295.838 421.092 293.966 416.234 294.607C411.052 295.291 407.713 298.56 406.436 303.9C405.17 309.192 405.773 314.467 406.52 320.144Z" fill="black"/>
<path d="M478.24 279.797C492.968 279.869 502.694 286.166 506.31 297.649C507.801 302.382 507.241 303.165 502.185 303.284C500.186 303.33 498.176 303.165 496.187 303.312C492.757 303.566 490.552 302.769 488.742 299.199C485.312 292.435 474.647 292.709 471.029 299.641C467.049 307.264 467.206 315.425 470.438 323.316C471.931 326.961 475.181 328.729 479.235 328.863C483.402 329.001 487.198 327.834 488.786 323.88C490.363 319.956 492.937 319.163 496.536 319.581C499.968 319.98 503.47 318.512 506.843 319.829C507.709 327.39 502.092 336.41 493.949 340.711C475.795 350.299 454.567 339.574 451.459 319.294C450.46 312.775 450.492 306.29 452.459 300.005C456.325 287.644 465.256 281.413 478.24 279.797Z" fill="black"/>
</svg>
