<?xml version="1.0" encoding="UTF-8" standalone="yes"?>
<svg version="1.2" width="1080.000000pt" height="1080.000000pt" viewBox="0 0 1080.000000 1080.000000" preserveAspectRatio="xMidYMid meet" baseProfile="tiny-ps" xmlns="http://www.w3.org/2000/svg">
  <title>bimi-svg-tiny-12-ps</title>
  <g transform="translate(0.000000,1080.000000) scale(0.100000,-0.100000)" fill="#000000" stroke="none">
    <path d="M3729 8803 c-20 -3 -28 -11 -33 -35 -3 -17 -6 -243 -6 -502 l0 -472&#xA;93 -62 c50 -34 115 -77 142 -96 28 -18 136 -88 240 -156 350 -225 390 -254&#xA;390 -274 0 -22 -201 -160 -600 -413 -338 -214 -335 -212 -345 -239 -11 -28&#xA;-14 -1540 -4 -1593 9 -41 21 -50 706 -498 132 -87 238 -168 238 -183 0 -14&#xA;-679 -459 -777 -509 -79 -40 -73 1 -76 -560 -2 -437 0 -503 13 -511 9 -6 167&#xA;-10 382 -10 l368 0 2 178 3 177 30 -1 c17 -1 415 -5 887 -9 l856 -8 6 -30 c3&#xA;-16 6 -92 6 -168 l0 -139 385 0 385 0 0 268 c0 148 -3 378 -7 511 l-6 242&#xA;-104 72 c-57 40 -153 104 -214 142 -227 145 -527 344 -534 355 -4 7 1 20 11&#xA;30 19 18 736 488 871 571 l72 44 -1 570 c0 314 -4 685 -7 825 l-6 255 -121 80&#xA;c-66 44 -134 88 -150 97 -52 31 -178 111 -279 178 -54 36 -153 101 -221 145&#xA;-68 44 -135 89 -150 100 l-27 21 89 60 c49 34 217 142 374 242 157 99 310 198&#xA;340 219 l55 39 6 74 c9 102 11 832 3 909 l-7 61 -372 0 -372 0 -7 -37 c-3 -21&#xA;-6 -93 -6 -159 l0 -121 -31 -7 c-17 -3 -417 -6 -889 -6 l-857 0 -7 46 c-3 26&#xA;-6 100 -6 164 l0 117 -37 7 c-41 6 -651 6 -694 -1z m2325 -634 c-19 -22 -439&#xA;-303 -593 -398 -59 -37 -91 -51 -107 -47 -12 3 -55 30 -95 59 -41 29 -132 90&#xA;-204 137 -71 46 -148 98 -170 114 -43 34 -120 83 -177 116 -21 11 -38 25 -38&#xA;30 0 7 250 10 702 10 l701 0 -19 -21z m-370 -1676 l311 -208 -50 -7 c-65 -8&#xA;-1039 -10 -1139 -2 l-76 7 64 46 c125 88 563 371 575 371 2 0 144 -93 315&#xA;-207z m626 -748 l0 -255 -942 0 c-576 0 -949 4 -958 10 -12 8 -16 47 -18 226&#xA;-2 119 -1 227 2 240 l6 24 418 3 c229 1 659 3 955 5 l537 2 0 -255z m-322&#xA;-537 c-12 -37 -595 -408 -640 -408 -9 0 -130 75 -269 167 -271 178 -338 224&#xA;-339 235 0 12 85 14 673 16 459 2 578 -1 575 -10z m-515 -1503 c56 -36 137&#xA;-89 179 -118 42 -28 110 -73 150 -99 40 -26 109 -74 153 -105 l80 -58 -50 -7&#xA;c-71 -9 -1315 -10 -1315 0 0 12 663 451 683 452 9 0 63 -29 120 -65z"/>
  </g>
</svg>