<svg version="1.1" id="Layer_1" xmlns="http://www.w3.org/2000/svg" xmlns:xlink="http://www.w3.org/1999/xlink" x="0px" y="0px"
	 width="100%" viewBox="0 0 720 720" enable-background="new 0 0 720 720" xml:space="preserve">
<path fill="#000000" opacity="1.000000" stroke="none" 
	d="
M189.005432,255.819305 
	C195.703613,254.154892 201.950790,252.324524 208.316833,251.124680 
	C212.027313,250.425354 213.145325,248.409576 213.684158,245.099579 
	C217.332977,222.685547 242.763428,211.394440 261.765106,223.685440 
	C274.264648,231.770599 279.696777,247.472092 274.801880,261.368134 
	C269.638824,276.025452 256.865356,283.999054 240.693054,282.089661 
	C237.073837,281.662354 235.630493,282.843933 234.243210,285.696350 
	C227.104630,300.373871 219.902847,315.021362 212.595688,329.615570 
	C211.219360,332.364441 211.776566,334.015106 214.017639,336.008423 
	C226.818939,347.394562 228.940247,362.869354 219.605453,377.275177 
	C217.878189,379.940796 217.876007,381.875824 219.509567,384.459625 
	C224.761993,392.767456 230.114777,401.036407 234.838120,409.644470 
	C237.437897,414.382446 240.538513,415.941528 245.908997,415.768921 
	C260.533386,415.298828 272.022797,424.019745 276.108856,437.861420 
	C280.898010,454.084717 271.483185,471.257751 255.135986,476.116913 
	C239.476028,480.771759 221.819031,471.280304 217.274567,455.158234 
	C215.907944,450.310028 213.663116,448.646393 208.931152,447.819489 
	C182.237518,443.154816 155.592758,438.203033 128.976395,433.113373 
	C125.789513,432.503967 124.587921,433.463440 123.214203,436.002533 
	C116.055847,449.233582 102.753410,455.375641 88.945168,452.035156 
	C75.702744,448.831573 65.683372,436.627533 64.929741,422.783356 
	C64.184677,409.096710 73.758659,395.784393 87.583878,392.291321 
	C91.617027,391.272339 92.936882,389.388611 93.444237,385.727966 
	C96.112999,366.472473 98.899765,347.233337 101.656845,327.990143 
	C101.868599,326.512177 102.184692,325.049438 102.423111,323.574921 
	C103.605339,316.263458 104.697586,310.199982 96.416298,304.548584 
	C85.516800,297.110443 82.530983,284.913757 86.372307,272.002472 
	C90.098740,259.477356 98.870949,251.988907 111.790436,250.349182 
	C123.680672,248.840073 133.284058,253.862778 140.418823,263.231018 
	C142.461334,265.912903 144.117691,266.788269 147.401642,265.952789 
	C161.100204,262.467651 174.864273,259.240051 189.005432,255.819305 
M108.450294,376.891510 
	C108.322701,378.215118 108.344093,379.573730 108.042740,380.856506 
	C106.377556,387.944794 105.563957,394.626953 114.832649,397.141846 
	C114.981255,397.182159 115.126472,397.314270 115.227112,397.440369 
	C117.593666,400.406036 119.912048,399.318024 122.535103,397.636078 
	C136.110687,388.931274 149.722321,380.280945 163.414597,371.761444 
	C165.744888,370.311523 166.668701,369.039917 165.797134,366.206207 
	C163.703842,359.400299 164.629883,352.653656 167.540192,346.294403 
	C168.763245,343.621948 168.152298,342.066345 166.216187,340.260101 
	C157.949783,332.548309 149.256607,325.205353 141.720825,316.826904 
	C135.646927,310.073761 129.885269,307.470276 121.357224,311.866150 
	C118.834892,313.166290 117.588303,313.981873 117.183067,316.936371 
	C114.478714,336.653656 111.505157,356.334045 108.450294,376.891510 
M157.003754,312.488342 
	C162.896011,318.116699 168.864502,323.668243 174.647568,329.406616 
	C177.435043,332.172577 179.979904,333.347870 183.803116,331.055908 
	C186.615707,329.369812 190.028732,328.562408 193.391220,328.767090 
	C196.713364,328.969269 198.497223,327.614624 199.902634,324.653992 
	C206.461441,310.837311 212.800064,296.887878 220.088409,283.458618 
	C223.356766,277.436523 223.386124,273.258545 218.850662,268.111725 
	C216.164658,265.063690 214.059937,263.842041 210.023178,264.861176 
	C191.187073,269.616669 172.322311,274.277954 153.373474,278.554993 
	C148.222565,279.717621 145.463226,281.922699 145.428375,287.249207 
	C145.412811,289.627594 144.750381,291.982391 143.490051,293.884552 
	C141.282333,297.216583 142.717773,299.227203 145.211594,301.422638 
	C149.078903,304.827179 152.748840,308.455963 157.003754,312.488342 
M137.684021,420.632080 
	C161.367905,425.016479 185.087769,429.219849 208.709839,433.915253 
	C214.460129,435.058228 218.904480,435.707825 221.128326,428.860626 
	C221.701233,427.096619 223.468307,425.654968 224.867142,424.244019 
	C226.149765,422.950256 226.267380,421.781067 225.334259,420.268036 
	C219.217041,410.349213 213.127487,400.413300 207.049347,390.470459 
	C205.927032,388.634521 204.497940,388.315338 202.391083,388.730865 
	C193.129883,390.557465 184.468231,389.136627 176.933578,383.136230 
	C174.887207,381.506561 173.301987,381.560577 171.161194,382.939117 
	C156.885681,392.131592 142.539139,401.213776 128.219269,410.337402 
	C126.483955,411.443024 125.056725,412.498810 125.742027,415.123566 
	C126.376411,417.553284 127.558784,418.888092 129.967255,419.287140 
	C132.262085,419.667358 134.547913,420.101929 137.684021,420.632080 
z"/>
<path fill="#000000" opacity="1.000000" stroke="none" 
	d="
M610.723145,313.027832 
	C610.695801,309.201233 610.871704,305.851562 610.590149,302.540802 
	C610.226807,298.268188 608.131531,295.298645 603.446716,295.013062 
	C599.017456,294.743073 595.638916,296.169769 594.088074,300.750641 
	C593.426147,302.705658 593.345886,304.660461 593.342590,306.658112 
	C593.325867,316.990936 593.224487,327.324890 593.354553,337.655914 
	C593.397156,341.041138 592.306519,342.447113 588.773376,342.373108 
	C573.069153,342.044098 575.849182,344.436340 575.678589,329.659393 
	C575.513123,315.328705 575.807312,300.991943 575.569214,286.663330 
	C575.493347,282.094360 577.062012,280.657623 581.403564,281.415527 
	C583.178955,281.725464 585.076660,281.607635 586.884766,281.395264 
	C589.813232,281.051300 592.582336,280.862885 594.017395,284.296722 
	C605.323669,277.760681 615.593628,278.133972 624.758301,287.819672 
	C628.913757,284.466156 632.926819,281.640656 637.970276,280.543762 
	C651.408813,277.621033 661.691589,284.522766 663.279114,298.156860 
	C664.844238,311.598389 663.627014,325.126038 663.923950,338.611725 
	C663.976379,340.992584 662.947876,342.427246 660.354980,342.299622 
	C660.189026,342.291443 660.021790,342.314941 659.855347,342.312500 
	C643.588562,342.073090 646.236206,344.692291 646.001465,329.310516 
	C645.866760,320.479919 645.835632,311.647003 645.848694,302.815247 
	C645.855042,298.505280 643.892822,295.770386 639.684875,295.004822 
	C635.553528,294.253204 632.116211,295.524963 629.921570,299.353149 
	C628.547607,301.749817 628.270325,304.358765 628.278625,307.069000 
	C628.309448,317.068390 628.178345,327.069366 628.319580,337.066742 
	C628.372070,340.782166 627.354614,342.496887 623.235168,342.392670 
	C608.473999,342.019196 610.957703,344.236725 610.734131,330.021118 
	C610.647644,324.522736 610.721985,319.021790 610.723145,313.027832 
z"/>
<path fill="#000000" opacity="1.000000" stroke="none" 
	d="
M330.163788,342.153748 
	C314.915588,336.481079 305.300995,323.254730 304.710602,307.364746 
	C304.451050,300.380066 304.246002,293.383331 306.158386,286.531555 
	C311.155914,268.625916 325.358032,257.971497 343.803589,258.331299 
	C362.808380,258.701996 377.053497,270.288422 381.177094,288.992615 
	C383.100739,297.718109 383.163605,306.574036 380.910431,315.237549 
	C375.033020,337.836365 354.159943,348.954163 330.163788,342.153748 
M348.106049,275.309601 
	C334.398132,272.177734 326.072449,281.597565 324.053955,291.138733 
	C322.721527,297.436920 322.706726,303.752838 323.561676,309.992798 
	C324.894897,319.723511 332.594025,327.117462 341.183533,327.657715 
	C352.086121,328.343475 359.719604,323.091919 362.618439,312.339386 
	C364.691772,304.648712 364.133545,296.872620 361.935181,289.217621 
	C359.964905,282.356659 356.034576,277.379700 348.106049,275.309601 
z"/>
<path fill="#000000" opacity="1.000000" stroke="none" 
	d="
M448.930542,439.298706 
	C437.055267,430.804932 435.448059,418.763184 437.045868,406.065399 
	C438.398499,395.315735 443.781311,386.986115 454.776733,383.423981 
	C463.000244,380.759827 470.520691,382.587555 477.482819,387.224945 
	C480.139740,383.325134 486.001678,382.424438 495.355804,384.498230 
	C495.355804,388.137817 495.358795,391.928314 495.355225,395.718811 
	C495.341522,410.384949 495.458771,425.052826 495.269836,439.716736 
	C495.110138,452.109772 489.079376,461.821350 479.255554,465.059875 
	C466.495758,469.266266 454.303650,468.861176 443.905487,458.898712 
	C443.306610,458.324951 442.724152,457.702209 442.273163,457.011475 
	C440.549927,454.372284 437.946716,451.411743 439.253571,448.446808 
	C440.549866,445.505859 444.349609,447.098328 447.047455,446.924957 
	C451.024323,446.669434 454.745941,446.597382 457.713959,450.567444 
	C460.063843,453.710632 467.480377,453.543793 471.802490,451.215973 
	C476.023407,448.942688 477.983521,444.334473 477.183838,438.054169 
	C468.078583,443.381073 458.794891,444.780884 448.930542,439.298706 
M477.615662,419.916809 
	C479.029083,414.818054 479.202423,409.733185 477.308868,404.712799 
	C475.487305,399.883362 471.476929,397.323334 466.034637,397.291809 
	C460.691132,397.260864 457.190979,399.844055 455.440582,404.767029 
	C453.779236,409.439697 453.719330,414.255554 455.076263,418.993744 
	C456.740326,424.804291 460.580658,428.041168 465.948486,428.525452 
	C470.843140,428.967102 474.683441,426.342224 477.615662,419.916809 
z"/>
<path fill="#000000" opacity="1.000000" stroke="none" 
	d="
M306.758911,371.191467 
	C306.827240,363.415009 306.825623,363.234802 314.096619,363.169769 
	C329.080109,363.035675 344.065735,363.151001 359.050018,363.076019 
	C362.294525,363.059784 364.112152,364.161957 364.044006,367.656555 
	C363.787811,380.793579 366.253143,379.614838 352.766174,379.833405 
	C344.775970,379.962891 336.776367,379.757874 328.786316,379.522156 
	C325.972351,379.439117 324.865326,380.412567 324.914093,383.235657 
	C325.170074,398.061340 323.326080,395.422577 336.347626,395.636108 
	C343.177673,395.748138 350.011841,395.735504 356.842255,395.641479 
	C359.609131,395.603363 360.579010,396.579803 360.580017,399.451874 
	C360.583832,410.501404 360.680054,410.430511 349.558380,410.460510 
	C342.731689,410.478943 335.906311,410.813446 329.079071,410.888580 
	C325.874786,410.923859 324.515259,412.381958 324.764374,415.526611 
	C325.847076,429.192108 322.175659,427.962708 336.939301,427.999207 
	C344.604218,428.018127 352.270508,428.102905 359.933594,427.987000 
	C363.706909,427.929901 365.343597,429.327484 365.243225,433.276215 
	C364.921234,445.941498 366.894745,444.911957 353.852081,444.954803 
	C340.022064,445.000244 326.190094,444.812012 312.362518,444.994720 
	C307.965179,445.052826 306.641724,443.461517 306.674713,439.147736 
	C306.846527,416.653931 306.757019,394.158142 306.758911,371.191467 
z"/>
<path fill="#000000" opacity="1.000000" stroke="none" 
	d="
M388.144287,445.319641 
	C376.967590,441.335449 371.838318,432.866150 370.228729,422.253937 
	C368.518707,410.979706 369.210358,399.827087 377.387695,390.761780 
	C385.794556,381.442017 398.453979,379.907959 409.134979,386.495087 
	C409.966125,387.007660 410.792084,387.528687 412.675507,388.704437 
	C412.675507,381.694824 412.907074,375.474792 412.597198,369.281830 
	C412.376678,364.874603 413.432892,363.159790 418.337769,363.421722 
	C429.316071,364.008026 429.342773,363.721649 429.343811,374.790894 
	C429.345825,396.261810 429.219849,417.733765 429.420837,439.202728 
	C429.462341,443.635406 427.951355,445.292694 423.698761,444.947510 
	C421.880615,444.799927 420.039185,444.954590 418.208557,444.942169 
	C415.124695,444.921204 411.733063,445.312988 412.774261,439.521057 
	C404.959778,445.979736 397.195343,447.830566 388.144287,445.319641 
M397.087097,397.292542 
	C392.385437,398.333954 389.593933,401.480988 388.291199,405.866547 
	C386.504211,411.882233 386.443756,417.985291 388.752502,423.906311 
	C390.950165,429.542419 394.721405,431.895142 400.675537,431.690399 
	C406.089233,431.504242 409.756653,428.735321 411.598816,423.164703 
	C413.306122,418.001831 413.291290,412.692993 411.952271,407.484467 
	C409.954010,399.711639 406.107666,397.013519 397.087097,397.292542 
z"/>
<path fill="#000000" opacity="1.000000" stroke="none" 
	d="
M532.573669,296.627197 
	C530.170105,300.501099 519.589355,302.858093 516.434814,300.469635 
	C515.172546,299.513885 515.294434,298.195831 515.510864,296.838043 
	C516.509888,290.570435 520.019775,286.050720 525.714722,283.611786 
	C536.115601,279.157501 546.728638,279.009796 557.149414,283.581940 
	C562.762024,286.044525 565.817078,290.634552 566.361633,296.800537 
	C567.564392,310.420013 566.799561,324.067474 566.955994,337.701996 
	C566.993591,340.980560 565.746460,342.872345 562.233582,342.322632 
	C557.861694,341.638519 553.031799,344.199646 549.066101,340.235260 
	C548.006226,339.175659 546.635864,340.662201 545.484497,341.223053 
	C538.706665,344.524597 531.794250,344.973114 524.714539,342.258392 
	C516.304688,339.033630 512.169067,332.771729 512.519531,323.757843 
	C512.829102,315.795654 517.257629,310.070953 525.808655,307.819122 
	C531.560059,306.304535 537.558167,305.728943 543.443909,304.721344 
	C546.696899,304.164459 549.995728,303.380981 549.757812,299.152802 
	C549.508179,294.714691 546.245972,293.533051 542.417480,293.354218 
	C538.860718,293.188049 535.388062,293.332062 532.573669,296.627197 
M530.314575,325.167542 
	C530.521790,327.878784 532.227173,329.159790 534.635254,329.961792 
	C539.243774,331.496643 543.228577,329.934570 546.671326,327.191193 
	C550.547607,324.102295 550.235168,319.775696 549.235596,315.076324 
	C544.320129,316.005493 539.622864,316.805878 534.967529,317.802277 
	C531.509094,318.542480 530.107422,320.955841 530.314575,325.167542 
z"/>
<path fill="#000000" opacity="1.000000" stroke="none" 
	d="
M558.336426,408.247833 
	C558.245361,420.499451 559.612976,419.112671 548.013794,419.181091 
	C539.855408,419.229218 531.695129,419.308136 523.538574,419.184967 
	C519.103210,419.117981 518.940491,421.067383 520.344727,424.488739 
	C523.810486,432.933228 532.813538,435.702179 539.288940,429.367218 
	C545.183289,423.600800 551.419556,426.349518 558.538452,426.032959 
	C556.505676,434.134003 551.706482,439.032349 545.643677,442.614258 
	C528.283630,452.870544 506.309509,442.601166 502.784058,422.790710 
	C501.389282,414.952942 501.364655,407.191223 504.494934,399.738434 
	C509.956573,386.735046 521.888123,380.612579 537.175659,382.782135 
	C548.765259,384.426941 556.302979,393.334625 558.336426,408.247833 
M533.526917,407.300842 
	C534.516968,407.343781 535.508057,407.439697 536.496887,407.420837 
	C541.728577,407.321198 542.677368,405.583496 540.016113,401.022644 
	C537.539368,396.777985 532.431213,394.935547 527.000122,396.328033 
	C522.678711,397.436005 520.261658,401.125946 520.052063,407.196869 
	C524.264832,407.908295 528.518127,407.438354 533.526917,407.300842 
z"/>
<path fill="#000000" opacity="1.000000" stroke="none" 
	d="
M406.517944,320.144073 
	C408.184540,325.105011 410.800598,328.385742 416.081604,328.801880 
	C421.447296,329.224701 425.103119,326.821960 427.216522,322.132721 
	C428.248444,319.843048 429.811066,319.418945 431.966766,319.490845 
	C433.958374,319.557281 435.961884,319.545990 437.949280,319.410187 
	C445.539520,318.891449 446.096069,319.578156 443.536865,326.538666 
	C439.173798,338.405212 427.252655,345.499908 414.135529,344.036407 
	C401.053680,342.576813 390.657349,332.623627 388.769562,319.552582 
	C386.921051,306.753876 388.499969,294.897369 399.188843,286.020447 
	C412.125397,275.276855 433.422638,278.587555 441.561768,292.574219 
	C442.713531,294.553406 443.511871,296.804535 444.098694,299.028778 
	C444.769348,301.570618 443.812561,303.256989 440.855988,303.241272 
	C437.528656,303.223541 434.199615,303.193146 430.874237,303.279785 
	C428.684296,303.336823 427.601349,302.145569 426.762482,300.328308 
	C424.689606,295.837708 421.089661,293.965912 416.231812,294.606720 
	C411.050018,295.290222 407.710480,298.559784 406.433319,303.899902 
	C405.167755,309.191650 405.770325,314.467072 406.517944,320.144073 
z"/>
<path fill="#000000" opacity="1.000000" stroke="none" 
	d="
M478.239258,279.796906 
	C492.966888,279.869263 502.692688,286.165710 506.309143,297.648865 
	C507.799835,302.382111 507.239502,303.165222 502.183594,303.283539 
	C500.184906,303.330322 498.175110,303.164886 496.186340,303.312012 
	C492.755585,303.565796 490.550568,302.769043 488.740753,299.199402 
	C485.311188,292.435120 474.645782,292.709167 471.027557,299.640839 
	C467.048279,307.264099 467.205383,315.425262 470.437225,323.316376 
	C471.929810,326.960724 475.180267,328.728638 479.234131,328.862915 
	C483.401276,329.000946 487.196503,327.834198 488.785278,323.880402 
	C490.362335,319.955780 492.936096,319.163269 496.534515,319.581055 
	C499.966675,319.979584 503.469116,318.512451 506.841583,319.828735 
	C507.708069,327.390442 502.091095,336.410370 493.947815,340.711121 
	C475.793793,350.298828 454.565857,339.573792 451.458008,319.294281 
	C450.458862,312.774780 450.491333,306.290100 452.457550,300.004608 
	C456.324005,287.644135 465.254547,281.413147 478.239258,279.796906 
z"/>
</svg>


